<svg xmlns="http://www.w3.org/2000/svg" width="200" height="300" viewBox="0 0 200 300">
  <!-- Head -->
  <rect x="40" y="20" width="120" height="100" rx="15" fill="#cccccc" stroke="#333" stroke-width="4"></rect>
  <!-- Eyes -->
  <circle cx="75" cy="60" r="10" fill="#fff" stroke="#333" stroke-width="3"></circle>
  <circle cx="125" cy="60" r="10" fill="#fff" stroke="#333" stroke-width="3"></circle>
  <!-- Pupils -->
  <circle cx="75" cy="60" r="5" fill="#333"></circle>
  <circle cx="125" cy="60" r="5" fill="#333"></circle>
  <!-- Mouth -->
  <rect x="80" y="90" width="40" height="8" rx="4" fill="#333"></rect>
  <!-- Antennae -->
  <line x1="80" y1="20" x2="80" y2="0" stroke="#333" stroke-width="4"></line>
  <circle cx="80" cy="0" r="6" fill="#ff4f4f"></circle>
  <line x1="120" y1="20" x2="120" y2="0" stroke="#333" stroke-width="4"></line>
  <circle cx="120" cy="0" r="6" fill="#ff4f4f"></circle>

  <!-- Body -->
  <rect x="30" y="130" width="140" height="130" rx="15" fill="#e6e6e6" stroke="#333" stroke-width="4"></rect>

  <!-- Buttons -->
  <circle cx="80" cy="180" r="12" fill="#ffcc00" stroke="#333" stroke-width="3"></circle>
  <circle cx="120" cy="180" r="12" fill="#00ccff" stroke="#333" stroke-width="3"></circle>
  <circle cx="80" cy="220" r="12" fill="#00ff99" stroke="#333" stroke-width="3"></circle>
  <circle cx="120" cy="220" r="12" fill="#ff6699" stroke="#333" stroke-width="3"></circle>

  <!-- Arms -->
  <line x1="30" y1="150" x2="0" y2="150" stroke="#333" stroke-width="12" stroke-linecap="round"></line>
  <line x1="170" y1="150" x2="200" y2="150" stroke="#333" stroke-width="12" stroke-linecap="round"></line>

  <!-- Legs -->
  <rect x="60" y="260" width="20" height="30" rx="5" fill="#cccccc" stroke="#333" stroke-width="4"></rect>
  <rect x="120" y="260" width="20" height="30" rx="5" fill="#cccccc" stroke="#333" stroke-width="4"></rect>
</svg>
